# xmcd
#
# Track frame offsets:
# 182
# 11830
# 23527
# 35750
# 48527
# 58982
# 71740
# 85280
# 97127
# 107717
# 118827
# 128870
# 138742
# 150097
# 159765
# 170582
# 182045
#
# Disc length: 2583 seconds
#
#
# Revision: 0
# Processed by: cddbd v1.4PL0 Copyright (c) Steve Scherf et al.
# Submitted via: FreeRIP 2.30 
#
DISCID=ec0a1511
DTITLE=Patsy Cline - 16 Greatest Hits
DYEAR=1988
DGENRE=Country
TTITLE0=Walkin' after midnight
TTITLE1=Sweets dreams of you
TTITLE2=Crazy
TTITLE3=Fingerprints
TTITLE4=I love you honey
TTITLE5=I fall to pieces
TTITLE6=She's got you
TTITLE7=Never no more
TTITLE8=San Antonio rose
TTITLE9=Leavin' on your mind
TTITLE10=Seven lonely days
TTITLE11=Heartaches
TTITLE12=Hungry for love
TTITLE13=True love
TTITLE14=I cried all the way to the altar
TTITLE15=crazy dreams
TTITLE16=I've loved and lost again
EXTD=
EXTT0=
EXTT1=
EXTT2=
EXTT3=
EXTT4=
EXTT5=
EXTT6=
EXTT7=
EXTT8=
EXTT9=
EXTT10=
EXTT11=
EXTT12=
EXTT13=
EXTT14=
EXTT15=
EXTT16=
PLAYORDER=
